<svg width="30" height="27" viewBox="0 0 30 27" fill="none" xmlns="http://www.w3.org/2000/svg">
<path d="M19.0063 0.719238C21.9518 0.719238 24.3396 3.10705 24.3396 6.05257C24.3396 7.02461 24.0795 7.93592 23.6252 8.72072L29.673 8.71924V11.3859H27.0063V24.7192C27.0063 25.4556 26.4094 26.0526 25.673 26.0526H4.3396C3.60323 26.0526 3.00627 25.4556 3.00627 24.7192V11.3859H0.3396V8.71924L6.38729 8.72072C5.93299 7.93592 5.67293 7.02461 5.67293 6.05257C5.67293 3.10705 8.06075 0.719238 11.0063 0.719238C12.5999 0.719238 14.0303 1.41818 15.0075 2.52625C15.9823 1.41818 17.4127 0.719238 19.0063 0.719238ZM13.673 11.3859H5.67293V23.3859H13.673V11.3859ZM24.3396 11.3859H16.3396V23.3859H24.3396V11.3859ZM11.0063 3.38591C9.53351 3.38591 8.3396 4.57981 8.3396 6.05257C8.3396 7.45838 9.42744 8.61012 10.8073 8.71192L11.0063 8.71924H13.673V6.05257C13.673 4.71704 12.6912 3.61082 11.41 3.41627L11.2053 3.39321L11.0063 3.38591ZM19.0063 3.38591C17.6004 3.38591 16.4487 4.47374 16.347 5.85356L16.3396 6.05257V8.71924H19.0063C20.412 8.71924 21.5638 7.6314 21.6656 6.25159L21.673 6.05257C21.673 4.57981 20.4791 3.38591 19.0063 3.38591Z" fill="#F8BE02"/>
</svg>
