<svg width="32" height="33" viewBox="0 0 32 33" fill="none" xmlns="http://www.w3.org/2000/svg">
<path d="M2.66675 29.3828C2.66675 23.4917 7.44237 18.7161 13.3334 18.7161C19.2245 18.7161 24.0001 23.4917 24.0001 29.3828H21.3334C21.3334 24.9645 17.7517 21.3828 13.3334 21.3828C8.91513 21.3828 5.33341 24.9645 5.33341 29.3828H2.66675ZM13.3334 17.3828C8.91341 17.3828 5.33341 13.8028 5.33341 9.38281C5.33341 4.96281 8.91341 1.38281 13.3334 1.38281C17.7534 1.38281 21.3334 4.96281 21.3334 9.38281C21.3334 13.8028 17.7534 17.3828 13.3334 17.3828ZM13.3334 14.7161C16.2801 14.7161 18.6667 12.3295 18.6667 9.38281C18.6667 6.43615 16.2801 4.04948 13.3334 4.04948C10.3867 4.04948 8.00008 6.43615 8.00008 9.38281C8.00008 12.3295 10.3867 14.7161 13.3334 14.7161ZM24.3783 19.6532C28.086 21.3243 30.6667 25.0521 30.6667 29.3828H28.0001C28.0001 26.1348 26.0645 23.3389 23.2838 22.0856L24.3783 19.6532ZM23.4617 4.60043C26.1259 5.69885 28.0001 8.32096 28.0001 11.3828C28.0001 15.2097 25.0723 18.3497 21.3334 18.6863V16.0023C23.5957 15.6791 25.3334 13.7348 25.3334 11.3828C25.3334 9.54195 24.2689 7.95085 22.7214 7.19128L23.4617 4.60043Z" fill="#4285F4"/>
</svg>
