<svg width="102" height="56" viewBox="0 0 102 56" fill="none" xmlns="http://www.w3.org/2000/svg">
<path d="M74.6199 27.7927L74.0161 27.417L73.4123 27.7927L60.0113 36.1301C58.995 36.7625 58.1042 37.6044 57.3898 38.6078C56.6755 39.6111 56.1515 40.7564 55.8477 41.978C55.544 43.1996 55.4665 44.4738 55.6196 45.7277C55.7728 46.9816 56.1535 48.1909 56.7402 49.2862C57.3269 50.3815 58.108 51.3416 59.039 52.1115C59.9698 52.8814 61.0324 53.4463 62.1658 53.7736C63.2992 54.1011 64.4814 54.1845 65.6448 54.0196C66.8081 53.8545 67.93 53.444 68.9462 52.8118L90.7619 39.2376L93.7522 37.3769L90.3378 36.823C89.2627 36.6485 88.2272 36.2586 87.2852 35.6733C87.2851 35.6732 87.2853 35.6733 87.2852 35.6733L74.6199 27.7927Z" fill="#FBBC04"/>
<path d="M87.2852 35.6733C88.2272 36.2586 89.2627 36.6485 90.3378 36.823L93.7522 37.3769L90.7619 39.2376L68.9462 52.8118C67.93 53.444 66.8081 53.8545 65.6448 54.0196C64.4814 54.1845 63.2992 54.1011 62.1658 53.7736C61.0324 53.4463 59.9698 52.8814 59.039 52.1115C58.108 51.3416 57.3269 50.3815 56.7402 49.2862C56.1535 48.1909 55.7728 46.9816 55.6196 45.7277C55.4665 44.4738 55.544 43.1996 55.8477 41.978C56.1515 40.7564 56.6755 39.6111 57.3898 38.6078C58.1042 37.6044 58.995 36.7625 60.0113 36.1301L73.4123 27.7927L74.0161 27.417L74.6199 27.7927L87.2852 35.6733ZM87.2852 35.6733C87.2851 35.6732 87.2853 35.6733 87.2852 35.6733Z" stroke="#15171B" stroke-width="1.75682"/>
<path d="M96.3308 19.4836L96.3298 19.4832L69.1613 2.60203C69.1611 2.6019 69.1615 2.60218 69.1613 2.60203C67.1091 1.32528 64.6697 0.979032 62.3809 1.64013C60.0918 2.3013 58.1402 3.9155 56.9553 6.12761C55.7705 8.33972 55.4494 10.9686 56.0628 13.4358C56.6763 15.903 58.1739 18.0065 60.2262 19.2837L87.3959 36.1651C89.4481 37.4419 91.8875 37.7883 94.1763 37.1271C96.4654 36.4659 98.4169 34.8518 99.6018 32.6396C100.787 30.4275 101.107 27.7987 100.494 25.3314C99.8805 22.8643 98.3835 20.7607 96.3308 19.4836Z" fill="#0F9D58"/>
<path d="M69.1613 2.60203L96.3298 19.4832L96.3308 19.4836C98.3835 20.7607 99.8805 22.8643 100.494 25.3314C101.107 27.7987 100.787 30.4275 99.6018 32.6396C98.4169 34.8518 96.4654 36.4659 94.1763 37.1271C91.8875 37.7883 89.4481 37.4419 87.3959 36.1651M69.1613 2.60203C69.1611 2.6019 69.1615 2.60218 69.1613 2.60203ZM69.1613 2.60203C67.1091 1.32528 64.6697 0.979032 62.3809 1.64013C60.0918 2.3013 58.1402 3.9155 56.9553 6.12761C55.7705 8.33972 55.4494 10.9686 56.0628 13.4358C56.6763 15.903 58.1739 18.0065 60.2262 19.2837L87.3959 36.1651M87.3959 36.1651C87.3961 36.1652 87.3958 36.165 87.3959 36.1651Z" stroke="#15171B" stroke-width="1.75682"/>
<path d="M14.2818 19.7329L27.284 27.5083L27.8871 27.8819L28.4895 27.5071L41.5345 19.2717C42.5726 18.5416 43.4911 17.9317 44.377 16.894C45.1749 15.8896 45.7722 14.719 46.132 13.4548C46.4917 12.1907 46.6062 10.8602 46.4681 9.54638C46.33 8.2325 45.9423 6.96342 45.3292 5.81811C44.7163 4.67281 43.891 3.67576 42.9048 2.88919C41.9187 2.10262 40.7929 1.5434 39.5975 1.24629C38.4021 0.949171 37.1628 0.920552 35.9567 1.16222C34.765 1.40099 33.6311 1.8985 32.6238 2.62435L10.8438 16.1763L7.18115 18.5901H8.01423C10.1762 18.5901 12.4441 18.594 14.2818 19.7329Z" fill="#EA4335" stroke="#15171B" stroke-width="1.75682"/>
<path d="M45.7559 42.2565C45.1646 39.8781 43.7516 37.8377 41.812 36.5498L41.7824 36.5071L41.5681 36.374L14.3985 19.4838L14.3965 19.4826C13.3779 18.8523 12.2542 18.4444 11.0894 18.2821C9.9247 18.1199 8.74164 18.2066 7.60791 18.5371C6.47418 18.8677 5.412 19.4357 4.48197 20.2087C3.55195 20.9817 2.77225 21.9446 2.18746 23.0424C1.60268 24.1402 1.22423 25.3514 1.07373 26.6069C0.923231 27.8623 1.00364 29.1374 1.31033 30.3593C1.61704 31.5813 2.14403 32.7262 2.86123 33.7286C3.57826 34.7308 4.47139 35.571 5.48964 36.2012C5.48941 36.201 5.48986 36.2014 5.48964 36.2012L32.6574 53.0903C34.7099 54.3674 37.1489 54.7133 39.438 54.0522C41.727 53.391 43.6786 51.7768 44.8635 49.5647C46.0484 47.3526 46.3694 44.7237 45.7559 42.2565Z" fill="#4285F4"/>
<path d="M5.48964 36.2012C4.47139 35.571 3.57826 34.7308 2.86123 33.7286C2.14403 32.7262 1.61704 31.5813 1.31033 30.3593C1.00364 29.1374 0.923231 27.8623 1.07373 26.6069C1.22423 25.3514 1.60268 24.1402 2.18746 23.0424C2.77225 21.9446 3.55195 20.9817 4.48197 20.2087C5.412 19.4357 6.47418 18.8677 7.60791 18.5371C8.74164 18.2066 9.9247 18.1199 11.0894 18.2821C12.2542 18.4444 13.3779 18.8523 14.3965 19.4826L14.3985 19.4838L41.5681 36.374L41.7824 36.5071L41.812 36.5498C43.7516 37.8377 45.1646 39.8781 45.7559 42.2565C46.3694 44.7237 46.0484 47.3526 44.8635 49.5647C43.6786 51.7768 41.727 53.391 39.438 54.0522C37.1489 54.7133 34.7099 54.3674 32.6574 53.0903L5.48964 36.2012ZM5.48964 36.2012C5.48986 36.2014 5.48941 36.201 5.48964 36.2012Z" stroke="#15171B" stroke-width="1.75682"/>
</svg>
