<svg width="1440" height="449" viewBox="0 0 1440 449" fill="none" xmlns="http://www.w3.org/2000/svg">
<g clip-path="url(#clip0_22_678)">
<rect width="1441" height="449" transform="translate(-1)" fill="white"/>
<rect x="-1" width="1441" height="449" fill="#E8E8E8"/>
<line x1="35.5" y1="-735" x2="35.4999" y2="1185" stroke="#4285F4"/>
<line x1="107.5" y1="-735" x2="107.5" y2="1185" stroke="#4285F4"/>
<line x1="179.5" y1="-735" x2="179.5" y2="1185" stroke="#4285F4"/>
<line x1="251.5" y1="-735" x2="251.5" y2="1185" stroke="#4285F4"/>
<line x1="323.5" y1="-735" x2="323.5" y2="1185" stroke="#4285F4"/>
<line x1="395.5" y1="-735" x2="395.5" y2="1185" stroke="#4285F4"/>
<line x1="467.5" y1="-735" x2="467.5" y2="1185" stroke="#4285F4"/>
<line x1="539.5" y1="-735" x2="539.5" y2="1185" stroke="#4285F4"/>
<line x1="611.5" y1="-735" x2="611.5" y2="1185" stroke="#4285F4"/>
<line x1="683.5" y1="-735" x2="683.5" y2="1185" stroke="#4285F4"/>
<line x1="755.5" y1="-735" x2="755.5" y2="1185" stroke="#4285F4"/>
<line x1="827.5" y1="-735" x2="827.5" y2="1185" stroke="#4285F4"/>
<line x1="899.5" y1="-735" x2="899.5" y2="1185" stroke="#4285F4"/>
<line x1="1115.5" y1="-735" x2="1115.5" y2="1185" stroke="#4285F4"/>
<line x1="1331.5" y1="-735" x2="1331.5" y2="1185" stroke="#4285F4"/>
<line x1="971.5" y1="-735" x2="971.5" y2="1185" stroke="#4285F4"/>
<line x1="1187.5" y1="-735" x2="1187.5" y2="1185" stroke="#4285F4"/>
<line x1="1403.5" y1="-735" x2="1403.5" y2="1185" stroke="#4285F4"/>
<line x1="1043.5" y1="-735" x2="1043.5" y2="1185" stroke="#4285F4"/>
<line x1="1259.5" y1="-735" x2="1259.5" y2="1185" stroke="#4285F4"/>
<line x1="-37" y1="45.5" x2="1475" y2="45.5" stroke="#4285F4"/>
<line x1="-37" y1="116.5" x2="1475" y2="116.5" stroke="#4285F4"/>
<line x1="-37" y1="187.5" x2="1475" y2="187.5" stroke="#4285F4"/>
<line x1="-37" y1="258.5" x2="1475" y2="258.5" stroke="#4285F4"/>
<line x1="-37" y1="329.5" x2="1475" y2="329.5" stroke="#4285F4"/>
<line x1="-37" y1="400.5" x2="1475" y2="400.5" stroke="#4285F4"/>
<rect x="-1" width="1441" height="449" fill="url(#paint0_radial_22_678)"/>
<path d="M141 111L155.343 125.343C160.383 130.383 169 126.814 169 119.686V113.314C169 106.186 177.617 102.617 182.657 107.657L200.343 125.343C205.383 130.383 214 126.814 214 119.686V113.314C214 106.186 222.617 102.617 227.657 107.657L244.5 124.5" stroke="#4285F4" stroke-width="13" stroke-linecap="round"/>
</g>
<defs>
<radialGradient id="paint0_radial_22_678" cx="0" cy="0" r="1" gradientUnits="userSpaceOnUse" gradientTransform="translate(719.5 224.5) scale(720.5 224.5)">
<stop stop-color="white" stop-opacity="0"/>
<stop offset="1" stop-color="#EEF4FF"/>
</radialGradient>
<clipPath id="clip0_22_678">
<rect width="1441" height="449" fill="white" transform="translate(-1)"/>
</clipPath>
</defs>
</svg>
