<svg width="200" height="100" viewBox="0 0 200 100" fill="none" xmlns="http://www.w3.org/2000/svg">
<path d="M8.74228e-06 100C1.10609e-05 73.4783 10.5357 48.043 29.2893 29.2893C48.043 10.5357 73.4784 -1.10609e-05 100 -8.74228e-06C126.522 -6.42368e-06 151.957 10.5357 170.711 29.2893C189.464 48.043 200 73.4783 200 100L154.446 100C154.446 85.5601 148.71 71.7116 138.499 61.501C128.288 51.2904 114.44 45.5542 100 45.5542C85.5601 45.5542 71.7116 51.2905 61.501 61.501C51.2905 71.7116 45.5542 85.5601 45.5542 100L8.74228e-06 100Z" fill="#F8BE02"/>
</svg>
